<svg width="33" height="25" viewBox="0 0 33 25" fill="none" xmlns="http://www.w3.org/2000/svg">
<path d="M0.277557 13.3411L9.97755 24.1151C10.0784 24.2275 10.2017 24.3174 10.3395 24.3791C10.4774 24.4408 10.6266 24.4728 10.7776 24.4731H17.2416C17.4502 24.4735 17.6544 24.4132 17.8295 24.2997C18.0045 24.1861 18.1428 24.0242 18.2275 23.8336C18.3122 23.6429 18.3398 23.4318 18.3067 23.2258C18.2737 23.0198 18.1816 22.8278 18.0416 22.6731L8.99356 12.6191L18.0416 2.56714C18.1812 2.41236 18.2729 2.22042 18.3057 2.01458C18.3384 1.80873 18.3108 1.5978 18.2261 1.40732C18.1415 1.21685 18.0034 1.055 17.8287 0.941381C17.6539 0.827761 17.45 0.767239 17.2416 0.767141H10.7776C10.6269 0.768068 10.478 0.80018 10.3403 0.861448C10.2026 0.922716 10.0791 1.01182 9.97755 1.12314L0.277557 11.8971C0.0989265 12.0952 6.10352e-05 12.3524 6.10352e-05 12.6191C6.10352e-05 12.8859 0.0989265 13.1431 0.277557 13.3411Z" fill="#CB1717"/>
<path d="M14.2837 13.3411L23.9837 24.1151C24.0845 24.2275 24.2079 24.3174 24.3457 24.3791C24.4835 24.4408 24.6327 24.4728 24.7837 24.4731H31.2457C31.4543 24.4735 31.6586 24.4132 31.8336 24.2997C32.0086 24.1861 32.1469 24.0242 32.2316 23.8336C32.3164 23.6429 32.3439 23.4318 32.3109 23.2258C32.2779 23.0198 32.1857 22.8278 32.0457 22.6731L22.9997 12.6221L32.0477 2.56914C32.1873 2.41436 32.279 2.22242 32.3118 2.01658C32.3446 1.81073 32.3169 1.5998 32.2323 1.40932C32.1476 1.21885 32.0096 1.05701 31.8348 0.943388C31.6601 0.829767 31.4561 0.769238 31.2477 0.76914H24.7817C24.631 0.770067 24.4821 0.802179 24.3444 0.863447C24.2068 0.924715 24.0833 1.01381 23.9817 1.12514L14.2817 11.8991C14.1039 12.0973 14.0057 12.3543 14.0061 12.6205C14.0065 12.8868 14.1053 13.1435 14.2837 13.3411Z" fill="#CB1717"/>
</svg>
