<svg width="34" height="25" viewBox="0 0 34 25" fill="none" xmlns="http://www.w3.org/2000/svg">
<path d="M32.9832 11.902L23.2832 1.12802C23.1823 1.01565 23.059 0.925717 22.9212 0.864046C22.7834 0.802374 22.6342 0.770343 22.4832 0.770021H16.0192C15.8106 0.769681 15.6063 0.829941 15.4313 0.943483C15.2563 1.05702 15.118 1.21896 15.0332 1.40961C14.9485 1.60026 14.921 1.81141 14.954 2.01741C14.987 2.22341 15.0791 2.41539 15.2192 2.57002L24.2672 12.624L15.2192 22.676C15.0796 22.8308 14.9878 23.0227 14.9551 23.2286C14.9223 23.4344 14.9499 23.6454 15.0346 23.8358C15.1192 24.0263 15.2573 24.1882 15.4321 24.3018C15.6068 24.4154 15.8107 24.4759 16.0192 24.476H22.4832C22.6339 24.4751 22.7827 24.443 22.9204 24.3817C23.0581 24.3204 23.1816 24.2313 23.2832 24.12L32.9832 13.346C33.1618 13.148 33.2607 12.8907 33.2607 12.624C33.2607 12.3573 33.1618 12.1001 32.9832 11.902Z" fill="#CB1717"/>
<path d="M18.977 11.902L9.27705 1.12802C9.17621 1.01565 9.05289 0.925717 8.91507 0.864046C8.77726 0.802374 8.62803 0.770343 8.47705 0.770021H2.01505C1.80642 0.769681 1.60218 0.829941 1.42716 0.943483C1.25213 1.05702 1.11385 1.21896 1.02912 1.40961C0.944387 1.60026 0.916852 1.81141 0.949859 2.01741C0.982865 2.22341 1.07499 2.41539 1.21505 2.57002L10.261 12.621L1.21305 22.674C1.07344 22.8288 0.981708 23.0207 0.948946 23.2266C0.916185 23.4324 0.943804 23.6434 1.02846 23.8338C1.11311 24.0243 1.25117 24.1862 1.42592 24.2998C1.60067 24.4134 1.80461 24.4739 2.01305 24.474H8.47905C8.62974 24.4731 8.77861 24.441 8.91629 24.3797C9.05397 24.3184 9.17748 24.2293 9.27905 24.118L18.979 13.344C19.1568 13.1458 19.255 12.8889 19.2546 12.6226C19.2543 12.3564 19.1554 12.0997 18.977 11.902Z" fill="#CB1717"/>
</svg>
