<svg width="105" height="40" viewBox="0 0 105 40" fill="none" xmlns="http://www.w3.org/2000/svg">
<path d="M97.3044 20.0713H37.9547C37.7707 16.3601 36.502 12.7844 34.3056 9.78725C32.1092 6.79009 29.0818 4.50317 25.5984 3.20984C22.115 1.91651 18.3286 1.6736 14.7085 2.51121C11.0883 3.34882 7.79351 5.23014 5.23217 7.92209C2.67084 10.614 0.955579 13.9983 0.298901 17.6556C-0.357778 21.3129 0.0729792 25.0824 1.53782 28.4973C3.00265 31.9122 5.43719 34.8222 8.53979 36.8669C11.6424 38.9116 15.2767 40.0011 18.9925 40.0004C19.6473 40.0004 20.3022 39.9685 20.957 39.9047H97.3044C99.2715 39.8999 101.157 39.1164 102.548 37.7254C103.938 36.3345 104.722 34.4494 104.727 32.4824V27.5233C104.728 25.5517 103.947 23.66 102.556 22.263C101.165 20.8661 99.2761 20.0779 97.3044 20.0713Z" fill="#BCBCBC"/>
<path d="M21.3305 14.9572L21.1122 14.8614C20.3873 14.5326 19.6005 14.3625 18.8046 14.3625C18.0086 14.3625 17.2218 14.5326 16.4969 14.8614L16.2786 14.9572L14.9058 9.81239L15.0015 9.71665C16.0915 8.84831 17.4439 8.37549 18.8376 8.37549C20.2312 8.37549 21.5836 8.84831 22.6737 9.71665L22.7694 9.81239L21.3305 14.9572ZM18.8041 13.9902C19.5834 13.9932 20.3555 14.1412 21.0806 14.4268L22.2658 9.93588C21.2671 9.18691 20.0524 8.78204 18.8041 8.78204C17.5557 8.78204 16.341 9.18691 15.3423 9.93588L16.5275 14.4268C17.2517 14.1378 18.0243 13.9896 18.8041 13.9902Z" fill="#0C0A0E"/>
<path d="M12.1297 20.0695L6.98395 18.6976L6.95237 18.6019C6.69339 17.2244 6.96053 15.7998 7.70101 14.6097C8.36191 13.3824 9.44927 12.4394 10.7578 11.9588L10.8536 11.9272L14.6274 15.7011L14.436 15.8256C13.7863 16.2992 13.2444 16.9051 12.8458 17.6034C12.4491 18.2922 12.2046 19.058 12.1287 19.8493L12.1297 20.0695ZM7.29605 18.3855L11.787 19.6023C11.9111 18.8376 12.1642 18.0995 12.5356 17.4195C12.9275 16.7432 13.4478 16.15 14.0674 15.6733L10.7923 12.3983C9.62115 12.8633 8.64998 13.7241 8.04757 14.8309C7.3884 15.8918 7.12244 17.1505 7.29605 18.3874V18.3855Z" fill="#0C0A0E"/>
<path d="M10.946 30.112L10.8503 30.0804C9.54176 29.5998 8.45441 28.6569 7.79351 27.4295C7.05187 26.2398 6.78463 24.8149 7.04485 23.4373L7.07644 23.3416L12.2222 21.9697L12.2538 22.188C12.3502 22.9793 12.6048 23.7431 13.0024 24.4339C13.4227 25.1162 13.9612 25.7182 14.5926 26.2117L14.784 26.3362L10.946 30.112ZM7.35982 23.6872C7.21736 24.9327 7.48029 26.191 8.10959 27.2752C8.73889 28.3595 9.70103 29.2119 10.8532 29.706L14.1283 26.431C13.5169 25.9457 12.998 25.3542 12.5965 24.6848C12.211 24.0112 11.9569 23.2704 11.8479 22.502L7.35982 23.6872Z" fill="#0C0A0E"/>
<path d="M18.8005 33.5451C17.3987 33.5966 16.0291 33.1181 14.9644 32.2049L14.8687 32.1091L16.2405 26.9634L16.4588 27.0591C17.1837 27.388 17.9705 27.5581 18.7665 27.5581C19.5625 27.5581 20.3493 27.388 21.0742 27.0591L21.2925 26.9634L22.6643 32.1091L22.5686 32.2049C21.534 33.1236 20.1828 33.6042 18.8005 33.5451ZM15.3071 32.0134C16.3058 32.7624 17.5205 33.1672 18.7689 33.1672C20.0172 33.1672 21.2319 32.7624 22.2307 32.0134L21.0455 27.5225C19.5836 28.1046 17.9542 28.1046 16.4923 27.5225L15.3071 32.0134Z" fill="#0C0A0E"/>
<path d="M26.7587 30.1121L22.9849 26.3411L23.1763 26.2166C23.8259 25.7429 24.3679 25.137 24.7665 24.4388C25.1631 23.75 25.4076 22.9841 25.4835 22.1929L25.5151 21.9746L30.6609 23.3465L30.6925 23.4422C30.9513 24.8197 30.6842 26.2442 29.9438 27.4343C29.2829 28.6617 28.1956 29.6047 26.887 30.0853L26.7587 30.1121ZM23.609 26.432L26.8841 29.7071C28.0363 29.213 28.9984 28.3605 29.6277 27.2763C30.257 26.192 30.52 24.9338 30.3775 23.6883L25.8866 22.4715C25.7625 23.2362 25.5093 23.9743 25.1379 24.6542C24.7269 25.3258 24.2107 25.927 23.609 26.4349V26.432Z" fill="#0C0A0E"/>
<path d="M25.479 20.069L25.4474 19.8508C25.3537 19.0633 25.1103 18.3009 24.7304 17.6048C24.3101 16.9225 23.7716 16.3205 23.1402 15.827L22.9487 15.7026L26.7226 11.9287L26.8183 11.9603C28.1269 12.4408 29.2142 13.3838 29.8751 14.6112C30.6168 15.8008 30.884 17.2258 30.6238 18.6033L30.5922 18.6991L25.479 20.069ZM23.5452 15.6403C24.1565 16.1256 24.6754 16.7172 25.0769 17.3865C25.4625 18.0601 25.7165 18.8009 25.8256 19.5693L30.3165 18.3525C30.4895 17.1065 30.2249 15.839 29.5678 14.7663C28.9733 13.6532 27.9995 12.7901 26.8231 12.3337L23.5452 15.6403Z" fill="#0C0A0E"/>
<path d="M18.8367 37.2866C15.6106 37.2866 12.457 36.33 9.77461 34.5377C7.09224 32.7454 5.00158 30.1979 3.76702 27.2174C2.53246 24.2369 2.20944 20.9572 2.83881 17.7932C3.46819 14.6291 5.02169 11.7227 7.30286 9.44153C9.58403 7.16036 12.4904 5.60686 15.6545 4.97749C18.8186 4.34811 22.0982 4.67113 25.0787 5.90569C28.0592 7.14025 30.6067 9.23091 32.399 11.9133C34.1913 14.5957 35.148 17.7493 35.148 20.9753C35.1391 25.2986 33.4177 29.4423 30.3607 32.4994C27.3037 35.5564 23.16 37.2778 18.8367 37.2866ZM18.8367 5.31889C15.7401 5.31889 12.7131 6.23713 10.1384 7.95748C7.56373 9.67783 5.557 12.123 4.372 14.9839C3.187 17.8447 2.87695 20.9927 3.48106 24.0298C4.08517 27.0668 5.5763 29.8565 7.7659 32.0461C9.95549 34.2357 12.7452 35.7269 15.7823 36.331C18.8193 36.9351 21.9673 36.625 24.8281 35.44C27.689 34.255 30.1342 32.2483 31.8545 29.6736C33.5749 27.0989 34.4931 24.0719 34.4931 20.9753C34.4906 16.8238 32.8403 12.843 29.9047 9.90736C26.9691 6.97176 22.9883 5.32143 18.8367 5.31889Z" fill="#0C0A0E"/>
<path d="M18.8367 23.5641C20.2664 23.5641 21.4254 22.4051 21.4254 20.9754C21.4254 19.5457 20.2664 18.3867 18.8367 18.3867C17.407 18.3867 16.248 19.5457 16.248 20.9754C16.248 22.4051 17.407 23.5641 18.8367 23.5641Z" fill="#0C0A0E"/>
<path d="M43.1937 36.6938H39.5137V38.3778H43.1937V36.6938Z" fill="white"/>
<path d="M48.6835 36.6938H45.0034V38.3778H48.6835V36.6938Z" fill="white"/>
<path d="M54.203 36.6938H50.5229V38.3778H54.203V36.6938Z" fill="white"/>
<path d="M59.723 36.6938H56.043V38.3778H59.723V36.6938Z" fill="white"/>
<path d="M65.2123 36.6938H61.5322V38.3778H65.2123V36.6938Z" fill="white"/>
<path d="M70.7328 36.6938H67.0527V38.3778H70.7328V36.6938Z" fill="white"/>
<path d="M76.2528 36.6938H72.5728V38.3778H76.2528V36.6938Z" fill="white"/>
<path d="M81.7416 36.6938H78.0615V38.3778H81.7416V36.6938Z" fill="white"/>
<path d="M87.2621 36.6938H83.582V38.3778H87.2621V36.6938Z" fill="white"/>
<path d="M92.7821 36.6938H89.1021V38.3778H92.7821V36.6938Z" fill="white"/>
<path d="M98.2709 36.6938H94.5908V38.3778H98.2709V36.6938Z" fill="white"/>
<path d="M43.1937 21.8804H39.5137V23.5643H43.1937V21.8804Z" fill="white"/>
<path d="M48.6835 21.8804H45.0034V23.5643H48.6835V21.8804Z" fill="white"/>
<path d="M54.203 21.8804H50.5229V23.5643H54.203V21.8804Z" fill="white"/>
<path d="M59.723 21.8804H56.043V23.5643H59.723V21.8804Z" fill="white"/>
<path d="M65.2123 21.8804H61.5322V23.5643H65.2123V21.8804Z" fill="white"/>
<path d="M70.7328 21.8804H67.0527V23.5643H70.7328V21.8804Z" fill="white"/>
<path d="M76.2528 21.8804H72.5728V23.5643H76.2528V21.8804Z" fill="white"/>
<path d="M81.7416 21.8804H78.0615V23.5643H81.7416V21.8804Z" fill="white"/>
<path d="M87.2621 21.8804H83.582V23.5643H87.2621V21.8804Z" fill="white"/>
<path d="M92.7821 21.8804H89.1021V23.5643H92.7821V21.8804Z" fill="white"/>
<path d="M98.2709 21.8804H94.5908V23.5643H98.2709V21.8804Z" fill="white"/>
<path d="M45.3379 32H44.4297L43.6875 30.0371H40.7188L40.0205 32H39.1074L41.793 24.998H42.6426L45.3379 32ZM43.4189 29.2998L42.3203 26.3164C42.2845 26.2188 42.2487 26.0625 42.2129 25.8477H42.1934C42.1608 26.0462 42.1234 26.2025 42.0811 26.3164L40.9922 29.2998H43.4189ZM49.6738 31.7705C49.2897 32.0016 48.834 32.1172 48.3066 32.1172C47.5938 32.1172 47.0176 31.8861 46.5781 31.4238C46.1419 30.9583 45.9238 30.3561 45.9238 29.6172C45.9238 28.7936 46.1598 28.1328 46.6318 27.6348C47.1038 27.1335 47.7337 26.8828 48.5215 26.8828C48.9609 26.8828 49.3483 26.9642 49.6836 27.127V27.9473C49.3125 27.6868 48.9154 27.5566 48.4922 27.5566C47.9811 27.5566 47.5612 27.7406 47.2324 28.1084C46.9069 28.473 46.7441 28.9531 46.7441 29.5488C46.7441 30.1348 46.8971 30.597 47.2031 30.9355C47.5124 31.2741 47.9258 31.4434 48.4434 31.4434C48.8796 31.4434 49.2897 31.2985 49.6738 31.0088V31.7705ZM54.293 31.7705C53.9089 32.0016 53.4531 32.1172 52.9258 32.1172C52.2129 32.1172 51.6367 31.8861 51.1973 31.4238C50.7611 30.9583 50.543 30.3561 50.543 29.6172C50.543 28.7936 50.779 28.1328 51.251 27.6348C51.723 27.1335 52.3529 26.8828 53.1406 26.8828C53.5801 26.8828 53.9674 26.9642 54.3027 27.127V27.9473C53.9316 27.6868 53.5345 27.5566 53.1113 27.5566C52.6003 27.5566 52.1803 27.7406 51.8516 28.1084C51.526 28.473 51.3633 28.9531 51.3633 29.5488C51.3633 30.1348 51.5163 30.597 51.8223 30.9355C52.1315 31.2741 52.5449 31.4434 53.0625 31.4434C53.4987 31.4434 53.9089 31.2985 54.293 31.0088V31.7705ZM59.5225 29.7002H55.9922C56.0052 30.2568 56.1549 30.6865 56.4414 30.9893C56.7279 31.292 57.1217 31.4434 57.623 31.4434C58.1862 31.4434 58.7038 31.2578 59.1758 30.8867V31.6387C58.7363 31.9577 58.1553 32.1172 57.4326 32.1172C56.7262 32.1172 56.1712 31.891 55.7676 31.4385C55.3639 30.9827 55.1621 30.3431 55.1621 29.5195C55.1621 28.7415 55.3818 28.1084 55.8213 27.6201C56.264 27.1286 56.8125 26.8828 57.4668 26.8828C58.1211 26.8828 58.6273 27.0944 58.9854 27.5176C59.3434 27.9408 59.5225 28.5283 59.5225 29.2803V29.7002ZM58.7021 29.0215C58.6989 28.5592 58.5866 28.1995 58.3652 27.9424C58.1471 27.6852 57.8428 27.5566 57.4521 27.5566C57.0745 27.5566 56.7539 27.6917 56.4902 27.9619C56.2266 28.2321 56.0638 28.5853 56.002 29.0215H58.7021ZM61.5391 32H60.7383V24.5977H61.5391V32ZM67.1787 29.7002H63.6484C63.6615 30.2568 63.8112 30.6865 64.0977 30.9893C64.3841 31.292 64.778 31.4434 65.2793 31.4434C65.8424 31.4434 66.36 31.2578 66.832 30.8867V31.6387C66.3926 31.9577 65.8115 32.1172 65.0889 32.1172C64.3825 32.1172 63.8275 31.891 63.4238 31.4385C63.0202 30.9827 62.8184 30.3431 62.8184 29.5195C62.8184 28.7415 63.0381 28.1084 63.4775 27.6201C63.9202 27.1286 64.4688 26.8828 65.123 26.8828C65.7773 26.8828 66.2835 27.0944 66.6416 27.5176C66.9997 27.9408 67.1787 28.5283 67.1787 29.2803V29.7002ZM66.3584 29.0215C66.3551 28.5592 66.2428 28.1995 66.0215 27.9424C65.8034 27.6852 65.499 27.5566 65.1084 27.5566C64.7308 27.5566 64.4102 27.6917 64.1465 27.9619C63.8828 28.2321 63.7201 28.5853 63.6582 29.0215H66.3584ZM71.002 27.8105C70.862 27.7031 70.6602 27.6494 70.3965 27.6494C70.0547 27.6494 69.7682 27.8105 69.5371 28.1328C69.3092 28.4551 69.1953 28.8945 69.1953 29.4512V32H68.3945V27H69.1953V28.0303H69.2148C69.3288 27.6787 69.5029 27.4053 69.7373 27.21C69.9717 27.0114 70.2337 26.9121 70.5234 26.9121C70.7318 26.9121 70.8913 26.9349 71.002 26.9805V27.8105ZM75.4502 32H74.6494V31.2188H74.6299C74.2816 31.8177 73.7689 32.1172 73.0918 32.1172C72.5938 32.1172 72.2031 31.9854 71.9199 31.7217C71.64 31.458 71.5 31.1081 71.5 30.6719C71.5 29.7376 72.0501 29.194 73.1504 29.041L74.6494 28.8311C74.6494 27.9814 74.306 27.5566 73.6191 27.5566C73.0169 27.5566 72.4733 27.7617 71.9883 28.1719V27.3516C72.4798 27.0391 73.0462 26.8828 73.6875 26.8828C74.8626 26.8828 75.4502 27.5046 75.4502 28.748V32ZM74.6494 29.4707L73.4434 29.6367C73.0723 29.6888 72.7923 29.7816 72.6035 29.915C72.4147 30.0452 72.3203 30.278 72.3203 30.6133C72.3203 30.8574 72.4066 31.0576 72.5791 31.2139C72.7549 31.3669 72.9876 31.4434 73.2773 31.4434C73.6745 31.4434 74.0016 31.305 74.2588 31.0283C74.5192 30.7484 74.6494 30.3952 74.6494 29.9688V29.4707ZM79.2783 31.9512C79.0895 32.0553 78.8405 32.1074 78.5312 32.1074C77.6556 32.1074 77.2178 31.6191 77.2178 30.6426V27.6836H76.3584V27H77.2178V25.7793L78.0186 25.5205V27H79.2783V27.6836H78.0186V30.501C78.0186 30.8363 78.0755 31.0755 78.1895 31.2188C78.3034 31.362 78.4922 31.4336 78.7559 31.4336C78.9577 31.4336 79.1318 31.3783 79.2783 31.2676V31.9512ZM82.4375 32.1172C81.6986 32.1172 81.1077 31.8844 80.665 31.4189C80.2256 30.9502 80.0059 30.3301 80.0059 29.5586C80.0059 28.7188 80.2354 28.0628 80.6943 27.5908C81.1533 27.1188 81.7734 26.8828 82.5547 26.8828C83.3001 26.8828 83.8812 27.1123 84.2979 27.5713C84.7178 28.0303 84.9277 28.6667 84.9277 29.4805C84.9277 30.278 84.7015 30.9176 84.249 31.3994C83.7998 31.8779 83.196 32.1172 82.4375 32.1172ZM82.4961 27.5566C81.9818 27.5566 81.5749 27.7324 81.2754 28.084C80.9759 28.4323 80.8262 28.9141 80.8262 29.5293C80.8262 30.1217 80.9775 30.5889 81.2803 30.9307C81.583 31.2725 81.9883 31.4434 82.4961 31.4434C83.0137 31.4434 83.4108 31.2757 83.6875 30.9404C83.9674 30.6051 84.1074 30.1283 84.1074 29.5098C84.1074 28.8848 83.9674 28.403 83.6875 28.0645C83.4108 27.7259 83.0137 27.5566 82.4961 27.5566ZM88.8145 27.8105C88.6745 27.7031 88.4727 27.6494 88.209 27.6494C87.8672 27.6494 87.5807 27.8105 87.3496 28.1328C87.1217 28.4551 87.0078 28.8945 87.0078 29.4512V32H86.207V27H87.0078V28.0303H87.0273C87.1413 27.6787 87.3154 27.4053 87.5498 27.21C87.7842 27.0114 88.0462 26.9121 88.3359 26.9121C88.5443 26.9121 88.7038 26.9349 88.8145 26.9805V27.8105Z" fill="white"/>
<path d="M52.8281 5.49707L49.8618 16H48.4189L46.2583 8.32422C46.1655 7.99707 46.1094 7.64063 46.0898 7.25488H46.0605C46.0312 7.61621 45.9678 7.96777 45.8701 8.30957L43.6948 16H42.2666L39.1904 5.49707H40.5454L42.7793 13.5537C42.8721 13.8906 42.9307 14.2422 42.9551 14.6084H42.9917C43.0161 14.3496 43.0918 13.998 43.2188 13.5537L45.5405 5.49707H46.7197L48.9463 13.6123C49.0244 13.8906 49.083 14.2178 49.1221 14.5938H49.1514C49.1709 14.3398 49.2368 14.0029 49.3491 13.583L51.4951 5.49707H52.8281ZM56.7832 16.1758C55.6748 16.1758 54.7886 15.8267 54.1245 15.1284C53.4653 14.4253 53.1357 13.4951 53.1357 12.3379C53.1357 11.0781 53.48 10.0942 54.1685 9.38623C54.8569 8.67822 55.7871 8.32422 56.959 8.32422C58.0771 8.32422 58.9487 8.66846 59.5737 9.35693C60.2036 10.0454 60.5186 11 60.5186 12.2207C60.5186 13.417 60.1792 14.3765 59.5005 15.0991C58.8267 15.8169 57.9209 16.1758 56.7832 16.1758ZM56.8711 9.33496C56.0996 9.33496 55.4893 9.59863 55.04 10.126C54.5908 10.6484 54.3662 11.3711 54.3662 12.2939C54.3662 13.1826 54.5933 13.8833 55.0474 14.396C55.5015 14.9087 56.1094 15.165 56.8711 15.165C57.6475 15.165 58.2432 14.9136 58.6582 14.4106C59.0781 13.9077 59.2881 13.1924 59.2881 12.2646C59.2881 11.3271 59.0781 10.6045 58.6582 10.0967C58.2432 9.58887 57.6475 9.33496 56.8711 9.33496Z" fill="white"/>
</svg>
