<svg width="26" height="21" viewBox="0 0 26 21" fill="none" xmlns="http://www.w3.org/2000/svg">
<g clip-path="url(#clip0_363_236)">
<path d="M14.7075 10.5011L17.2423 13.3445L20.651 15.4817L21.2456 10.5198L20.651 5.66602L17.1768 7.54357L14.7075 10.5011Z" fill="#188038"/>
<path d="M0 15.0204V19.2491C0 20.2169 0.797689 20.9999 1.78369 20.9999H6.09163L6.98242 17.8035L6.09163 15.0204L3.13574 14.146L0 15.0204Z" fill="#1967D2"/>
<path d="M6.09163 0L0 5.97953L3.13574 6.85392L6.09163 5.97953L6.96761 3.2338L6.09163 0Z" fill="#EA4335"/>
<path d="M0 15.0204H6.09163V5.97949H0V15.0204Z" fill="#4285F4"/>
<path d="M24.5421 2.53167L20.651 5.66578V15.4814L24.559 18.628C25.1451 19.0766 25.9999 18.6675 25.9999 17.9385V3.20876C25.9999 2.46936 25.1239 2.06436 24.5421 2.53167ZM14.7074 10.5009V15.0224H6.09155V21.002H18.8694C19.8554 21.002 20.6531 20.2189 20.6531 19.2511V15.4814L14.7074 10.5009Z" fill="#34A853"/>
<path d="M18.8694 0H6.09155V5.97953H14.7096V10.501L20.651 5.66591V1.75087C20.651 0.783009 19.8533 0 18.8694 0Z" fill="#FBBC04"/>
</g>
<defs>
<clipPath id="clip0_363_236">
<rect width="26" height="21" fill="white"/>
</clipPath>
</defs>
</svg>
