<svg width="143" height="52" viewBox="0 0 143 52" fill="none" xmlns="http://www.w3.org/2000/svg">
<path d="M132.865 24.6787H51.8256C51.5745 19.6111 49.8422 14.7286 46.8432 10.636C43.8441 6.54339 39.7103 3.42063 34.9538 1.65458C30.1972 -0.11146 25.0271 -0.443166 20.0839 0.700565C15.1407 1.8443 10.6417 4.4132 7.14424 8.08899C3.64682 11.7648 1.30471 16.3859 0.408087 21.3799C-0.488539 26.3738 0.099728 31.5211 2.1 36.1839C4.10028 40.8468 7.42465 44.8203 11.6612 47.6122C15.8978 50.4041 20.8605 51.8917 25.9342 51.8906C26.8286 51.8906 27.723 51.8481 28.6173 51.7631H132.865C135.551 51.7568 138.125 50.687 140.024 48.7876C141.924 46.8882 142.994 44.3138 143 41.6277V34.8569C143.003 32.1641 141.937 29.5802 140.037 27.6721C138.137 25.764 135.557 24.6875 132.865 24.6787Z" fill="url(#paint0_linear_363_132)"/>
<defs>
<linearGradient id="paint0_linear_363_132" x1="0" y1="25.91" x2="143" y2="25.91" gradientUnits="userSpaceOnUse">
<stop offset="0.005"/>
<stop offset="0.029" stop-color="#0C0C0C"/>
<stop offset="0.073" stop-color="#2D2D2D"/>
<stop offset="0.131" stop-color="#616262"/>
<stop offset="0.201" stop-color="#A9AAAA"/>
<stop offset="0.256" stop-color="#E6E7E8"/>
<stop offset="0.277" stop-color="#BBC6DC"/>
<stop offset="0.302" stop-color="#91A9D1"/>
<stop offset="0.327" stop-color="#6F93C8"/>
<stop offset="0.351" stop-color="#5385C2"/>
<stop offset="0.374" stop-color="#3A7CBE"/>
<stop offset="0.396" stop-color="#2577BC"/>
<stop offset="0.414" stop-color="#1C75BC"/>
<stop offset="0.437" stop-color="#197BA6"/>
<stop offset="0.466" stop-color="#12828E"/>
<stop offset="0.495" stop-color="#09887A"/>
<stop offset="0.525" stop-color="#018C67"/>
<stop offset="0.553" stop-color="#009056"/>
<stop offset="0.582" stop-color="#00924B"/>
<stop offset="0.609" stop-color="#009346"/>
<stop offset="0.636" stop-color="#009444"/>
<stop offset="0.648" stop-color="#4D8E40"/>
<stop offset="0.67" stop-color="#827F38"/>
<stop offset="0.694" stop-color="#A47031"/>
<stop offset="0.717" stop-color="#BE5E2C"/>
<stop offset="0.74" stop-color="#D14A28"/>
<stop offset="0.763" stop-color="#DF3626"/>
<stop offset="0.785" stop-color="#E92425"/>
<stop offset="0.808" stop-color="#ED1C24"/>
<stop offset="1" stop-color="#F9ED32"/>
</linearGradient>
</defs>
</svg>
