<svg width="146" height="54" viewBox="0 0 146 54" fill="none" xmlns="http://www.w3.org/2000/svg">
<path d="M132.865 26.6787H51.8256C51.5745 21.6111 49.8422 16.7286 46.8432 12.636C43.8441 8.54339 39.7103 5.42063 34.9538 3.65458C30.1972 1.88854 25.0271 1.55683 20.0839 2.70056C15.1407 3.8443 10.6417 6.4132 7.14424 10.089C3.64682 13.7648 1.30471 18.3859 0.408087 23.3799C-0.488539 28.3738 0.099728 33.5211 2.1 38.1839C4.10028 42.8468 7.42465 46.8203 11.6612 49.6122C15.8978 52.4041 20.8605 53.8917 25.9342 53.8906C26.8286 53.8906 27.723 53.8481 28.6173 53.7631H132.865C135.551 53.7568 138.125 52.687 140.024 50.7876C141.924 48.8882 142.994 46.3138 143 43.6277V36.8569C143.003 34.1641 141.937 31.5802 140.037 29.6721C138.137 27.764 135.557 26.6875 132.865 26.6787Z" fill="url(#paint0_linear_432_118)"/>
<path d="M29.129 19.6943L28.8306 19.5667C27.8407 19.1177 26.7662 18.8853 25.6792 18.8853C24.5922 18.8853 23.5177 19.1177 22.5278 19.5667L22.2294 19.6943L20.3555 12.6678L20.483 12.5403C21.9716 11.3552 23.8182 10.71 25.7209 10.71C27.6237 10.71 29.4702 11.3552 30.9589 12.5403L31.0864 12.6678L29.129 19.6943ZM25.6796 18.3744C26.7439 18.3784 27.7982 18.5806 28.7886 18.9706L30.4068 12.838C29.0431 11.8153 27.3845 11.2624 25.6799 11.2624C23.9753 11.2624 22.3167 11.8153 20.953 12.838L22.5712 18.9706C23.5601 18.5753 24.6153 18.3725 25.6802 18.3731L25.6796 18.3744Z" fill="#0C0A0E"/>
<path d="M16.566 26.6788L9.53959 24.8048L9.49687 24.6773C9.14328 22.7965 9.50799 20.8514 10.519 19.2264C11.4212 17.5506 12.9056 16.263 14.6921 15.6067L14.8196 15.564L19.9742 20.7185L19.7185 20.8888C18.8318 21.5356 18.0921 22.3629 17.5481 23.3161C17.0065 24.2566 16.6726 25.3021 16.5688 26.3824L16.566 26.6788ZM9.96688 24.3809L16.0994 26.0419C16.2684 24.9964 16.614 23.9873 17.1215 23.0577C17.6552 22.1345 18.3641 21.3244 19.2084 20.6731L14.7369 16.2015C13.1377 16.8371 11.8118 18.0131 10.9896 19.5248C10.0908 20.9739 9.72883 22.6924 9.96688 24.3809Z" fill="#0C0A0E"/>
<path d="M14.9495 40.3912L14.822 40.3485C13.0355 39.6921 11.5511 38.4045 10.6488 36.7287C9.63624 35.1044 9.2714 33.1587 9.62675 31.2778L9.66948 31.1503L16.6939 29.2764L16.7366 29.5748C16.8683 30.6551 17.2158 31.6979 17.7587 32.6411C18.3324 33.5726 19.0673 34.3945 19.929 35.0684L20.1847 35.2387L14.9495 40.3912ZM10.052 31.619C9.85723 33.3197 10.2161 35.0378 11.0752 36.5184C11.9344 37.999 13.2481 39.163 14.8213 39.8377L19.2929 35.3662C18.4597 34.7031 17.7528 33.8953 17.206 32.9815C16.679 32.0607 16.3321 31.0479 16.1839 29.9973L10.052 31.619Z" fill="#0C0A0E"/>
<path d="M25.678 45.075C23.7638 45.145 21.8936 44.4911 20.44 43.2438L20.3125 43.1163L22.1864 36.0898L22.4849 36.2173C23.4748 36.6664 24.5492 36.8987 25.6363 36.8987C26.7233 36.8987 27.7977 36.6664 28.7877 36.2173L29.0861 36.0898L30.96 43.1163L30.8325 43.2438C30.7884 43.3293 28.9999 45.075 25.678 45.075ZM20.9087 42.9881C22.2724 44.0109 23.931 44.5637 25.6356 44.5637C27.3402 44.5637 28.9988 44.0109 30.3625 42.9881L28.7442 36.8556C26.748 37.6504 24.5231 37.6504 22.5269 36.8556L20.9087 42.9881Z" fill="#0C0A0E"/>
<path d="M36.5413 40.3913L31.3867 35.2367L31.6424 35.0665C32.5291 34.4196 33.2687 33.5923 33.8127 32.6391C34.3544 31.6987 34.6883 30.6531 34.7921 29.5728L34.8348 29.2744L41.8613 31.1484L41.904 31.2759C42.2581 33.1574 41.8934 35.1033 40.8819 36.7288C39.9797 38.4046 38.4952 39.6922 36.7088 40.3485L36.5413 40.3913ZM32.2399 35.3663L36.7115 39.8378C38.2847 39.1631 39.5984 37.999 40.4576 36.5185C41.3167 35.0379 41.6756 33.3197 41.4808 31.6191L35.3483 29.9581C35.1793 31.0036 34.8336 32.0127 34.3262 32.9423C33.7644 33.8567 33.0595 34.6751 32.2386 35.3663H32.2399Z" fill="#0C0A0E"/>
<path d="M34.7938 26.6789L34.7511 26.3804C34.623 25.3053 34.2906 24.2645 33.7717 23.3142C33.1981 22.3826 32.4632 21.5607 31.6014 20.8868L31.3457 20.7165L36.5002 15.562L36.6278 15.6047C38.4142 16.2611 39.8986 17.5487 40.8009 19.2244C41.8135 20.8488 42.1783 22.7945 41.823 24.6754L41.7803 24.8029L34.7938 26.6789ZM32.1535 20.6318C32.9867 21.2949 33.6936 22.1027 34.2404 23.0164C34.7674 23.9373 35.1142 24.95 35.2625 26.0006L41.395 24.3397C41.6315 22.6381 41.2702 20.9071 40.3729 19.4422C39.5616 17.9218 38.2321 16.7427 36.6257 16.1188L32.1535 20.6318Z" fill="#0C0A0E"/>
<path d="M25.7209 50.1855C21.316 50.1855 17.01 48.8793 13.3474 46.432C9.68487 43.9848 6.83025 40.5064 5.14456 36.4368C3.45887 32.3672 3.01782 27.8891 3.87717 23.5688C4.73653 19.2485 6.8577 15.2801 9.97245 12.1653C13.0872 9.05057 17.0556 6.9294 21.3759 6.07004C25.6962 5.21069 30.1743 5.65174 34.2439 7.33743C38.3135 9.02312 41.7919 11.8777 44.2391 15.5403C46.6864 19.2029 47.9926 23.5089 47.9926 27.9138C47.9802 33.8168 45.6298 39.4745 41.4557 43.6486C37.2816 47.8227 31.6239 50.1731 25.7209 50.1855ZM25.7209 6.53601C21.4928 6.53601 17.3596 7.78979 13.8441 10.1388C10.3285 12.4878 7.58845 15.8266 5.97042 19.7329C4.35239 23.6391 3.92903 27.9375 4.7539 32.0844C5.57877 36.2313 7.61481 40.0404 10.6045 43.0302C13.5943 46.0199 17.4034 48.0559 21.5503 48.8808C25.6972 49.7057 29.9956 49.2823 33.9018 47.6643C37.8081 46.0462 41.1469 43.3062 43.4959 39.7906C45.8449 36.2751 47.0987 32.1419 47.0987 27.9138C47.0951 22.2451 44.8417 16.8097 40.8333 12.8014C36.825 8.79305 31.3896 6.5396 25.7209 6.53601Z" fill="#0C0A0E"/>
<path d="M25.7198 31.4474C27.6717 31.4474 29.2541 29.8651 29.2541 27.9132C29.2541 25.9612 27.6717 24.3789 25.7198 24.3789C23.7679 24.3789 22.1855 25.9612 22.1855 27.9132C22.1855 29.8651 23.7679 31.4474 25.7198 31.4474Z" fill="#0C0A0E"/>
<path d="M58.9801 49.377H53.9551V51.6768H58.9801V49.377Z" fill="black"/>
<path d="M66.4742 49.377H61.4492V51.6768H66.4742V49.377Z" fill="black"/>
<path d="M74.0113 49.377H68.9863V51.6768H74.0113V49.377Z" fill="black"/>
<path d="M81.5504 49.377H76.5254V51.6768H81.5504V49.377Z" fill="black"/>
<path d="M89.0445 49.377H84.0195V51.6768H89.0445V49.377Z" fill="black"/>
<path d="M96.5816 49.377H91.5566V51.6768H96.5816V49.377Z" fill="black"/>
<path d="M104.121 49.377H99.0957V51.6768H104.121V49.377Z" fill="black"/>
<path d="M111.615 49.377H106.59V51.6768H111.615V49.377Z" fill="black"/>
<path d="M119.154 49.377H114.129V51.6768H119.154V49.377Z" fill="black"/>
<path d="M126.691 49.377H121.666V51.6768H126.691V49.377Z" fill="black"/>
<path d="M134.185 49.377H129.16V51.6768H134.185V49.377Z" fill="black"/>
<path d="M58.9801 29.1489H53.9551V31.4488H58.9801V29.1489Z" fill="black"/>
<path d="M66.4742 29.1489H61.4492V31.4488H66.4742V29.1489Z" fill="black"/>
<path d="M74.0113 29.1489H68.9863V31.4488H74.0113V29.1489Z" fill="black"/>
<path d="M81.5504 29.1489H76.5254V31.4488H81.5504V29.1489Z" fill="black"/>
<path d="M89.0445 29.1489H84.0195V31.4488H89.0445V29.1489Z" fill="black"/>
<path d="M96.5816 29.1489H91.5566V31.4488H96.5816V29.1489Z" fill="black"/>
<path d="M104.121 29.1489H99.0957V31.4488H104.121V29.1489Z" fill="black"/>
<path d="M111.615 29.1489H106.59V31.4488H111.615V29.1489Z" fill="black"/>
<path d="M119.154 29.1489H114.129V31.4488H119.154V29.1489Z" fill="black"/>
<path d="M126.691 29.1489H121.666V31.4488H126.691V29.1489Z" fill="black"/>
<path d="M134.185 29.1489H129.16V31.4488H134.185V29.1489Z" fill="black"/>
<path d="M64.1406 46H62.6875L61.5 42.8594H56.75L55.6328 46H54.1719L58.4688 34.7969H59.8281L64.1406 46ZM61.0703 41.6797L59.3125 36.9062C59.2552 36.75 59.1979 36.5 59.1406 36.1562H59.1094C59.0573 36.474 58.9974 36.724 58.9297 36.9062L57.1875 41.6797H61.0703ZM71.0781 45.6328C70.4635 46.0026 69.7344 46.1875 68.8906 46.1875C67.75 46.1875 66.8281 45.8177 66.125 45.0781C65.4271 44.3333 65.0781 43.3698 65.0781 42.1875C65.0781 40.8698 65.4557 39.8125 66.2109 39.0156C66.9661 38.2135 67.974 37.8125 69.2344 37.8125C69.9375 37.8125 70.5573 37.9427 71.0938 38.2031V39.5156C70.5 39.099 69.8646 38.8906 69.1875 38.8906C68.3698 38.8906 67.6979 39.1849 67.1719 39.7734C66.651 40.3568 66.3906 41.125 66.3906 42.0781C66.3906 43.0156 66.6354 43.7552 67.125 44.2969C67.6198 44.8385 68.2812 45.1094 69.1094 45.1094C69.8073 45.1094 70.4635 44.8776 71.0781 44.4141V45.6328ZM78.4688 45.6328C77.8542 46.0026 77.125 46.1875 76.2812 46.1875C75.1406 46.1875 74.2188 45.8177 73.5156 45.0781C72.8177 44.3333 72.4688 43.3698 72.4688 42.1875C72.4688 40.8698 72.8464 39.8125 73.6016 39.0156C74.3568 38.2135 75.3646 37.8125 76.625 37.8125C77.3281 37.8125 77.9479 37.9427 78.4844 38.2031V39.5156C77.8906 39.099 77.2552 38.8906 76.5781 38.8906C75.7604 38.8906 75.0885 39.1849 74.5625 39.7734C74.0417 40.3568 73.7812 41.125 73.7812 42.0781C73.7812 43.0156 74.026 43.7552 74.5156 44.2969C75.0104 44.8385 75.6719 45.1094 76.5 45.1094C77.1979 45.1094 77.8542 44.8776 78.4688 44.4141V45.6328ZM86.8359 42.3203H81.1875C81.2083 43.2109 81.4479 43.8984 81.9062 44.3828C82.3646 44.8672 82.9948 45.1094 83.7969 45.1094C84.6979 45.1094 85.526 44.8125 86.2812 44.2188V45.4219C85.5781 45.9323 84.6484 46.1875 83.4922 46.1875C82.362 46.1875 81.474 45.8255 80.8281 45.1016C80.1823 44.3724 79.8594 43.349 79.8594 42.0312C79.8594 40.7865 80.2109 39.7734 80.9141 38.9922C81.6224 38.2057 82.5 37.8125 83.5469 37.8125C84.5938 37.8125 85.4036 38.151 85.9766 38.8281C86.5495 39.5052 86.8359 40.4453 86.8359 41.6484V42.3203ZM85.5234 41.2344C85.5182 40.4948 85.3385 39.9193 84.9844 39.5078C84.6354 39.0964 84.1484 38.8906 83.5234 38.8906C82.9193 38.8906 82.4062 39.1068 81.9844 39.5391C81.5625 39.9714 81.3021 40.5365 81.2031 41.2344H85.5234ZM90.0625 46H88.7812V34.1562H90.0625V46ZM99.0859 42.3203H93.4375C93.4583 43.2109 93.6979 43.8984 94.1562 44.3828C94.6146 44.8672 95.2448 45.1094 96.0469 45.1094C96.9479 45.1094 97.776 44.8125 98.5312 44.2188V45.4219C97.8281 45.9323 96.8984 46.1875 95.7422 46.1875C94.612 46.1875 93.724 45.8255 93.0781 45.1016C92.4323 44.3724 92.1094 43.349 92.1094 42.0312C92.1094 40.7865 92.4609 39.7734 93.1641 38.9922C93.8724 38.2057 94.75 37.8125 95.7969 37.8125C96.8438 37.8125 97.6536 38.151 98.2266 38.8281C98.7995 39.5052 99.0859 40.4453 99.0859 41.6484V42.3203ZM97.7734 41.2344C97.7682 40.4948 97.5885 39.9193 97.2344 39.5078C96.8854 39.0964 96.3984 38.8906 95.7734 38.8906C95.1693 38.8906 94.6562 39.1068 94.2344 39.5391C93.8125 39.9714 93.5521 40.5365 93.4531 41.2344H97.7734ZM105.203 39.2969C104.979 39.125 104.656 39.0391 104.234 39.0391C103.688 39.0391 103.229 39.2969 102.859 39.8125C102.495 40.3281 102.312 41.0312 102.312 41.9219V46H101.031V38H102.312V39.6484H102.344C102.526 39.0859 102.805 38.6484 103.18 38.3359C103.555 38.0182 103.974 37.8594 104.438 37.8594C104.771 37.8594 105.026 37.8958 105.203 37.9688V39.2969ZM112.32 46H111.039V44.75H111.008C110.451 45.7083 109.63 46.1875 108.547 46.1875C107.75 46.1875 107.125 45.9766 106.672 45.5547C106.224 45.1328 106 44.5729 106 43.875C106 42.3802 106.88 41.5104 108.641 41.2656L111.039 40.9297C111.039 39.5703 110.49 38.8906 109.391 38.8906C108.427 38.8906 107.557 39.2188 106.781 39.875V38.5625C107.568 38.0625 108.474 37.8125 109.5 37.8125C111.38 37.8125 112.32 38.8073 112.32 40.7969V46ZM111.039 41.9531L109.109 42.2188C108.516 42.3021 108.068 42.4505 107.766 42.6641C107.464 42.8724 107.312 43.2448 107.312 43.7812C107.312 44.1719 107.451 44.4922 107.727 44.7422C108.008 44.987 108.38 45.1094 108.844 45.1094C109.479 45.1094 110.003 44.888 110.414 44.4453C110.831 43.9974 111.039 43.4323 111.039 42.75V41.9531ZM118.445 45.9219C118.143 46.0885 117.745 46.1719 117.25 46.1719C115.849 46.1719 115.148 45.3906 115.148 43.8281V39.0938H113.773V38H115.148V36.0469L116.43 35.6328V38H118.445V39.0938H116.43V43.6016C116.43 44.138 116.521 44.5208 116.703 44.75C116.885 44.9792 117.188 45.0938 117.609 45.0938C117.932 45.0938 118.211 45.0052 118.445 44.8281V45.9219ZM123.5 46.1875C122.318 46.1875 121.372 45.8151 120.664 45.0703C119.961 44.3203 119.609 43.3281 119.609 42.0938C119.609 40.75 119.977 39.7005 120.711 38.9453C121.445 38.1901 122.438 37.8125 123.688 37.8125C124.88 37.8125 125.81 38.1797 126.477 38.9141C127.148 39.6484 127.484 40.6667 127.484 41.9688C127.484 43.2448 127.122 44.2682 126.398 45.0391C125.68 45.8047 124.714 46.1875 123.5 46.1875ZM123.594 38.8906C122.771 38.8906 122.12 39.1719 121.641 39.7344C121.161 40.2917 120.922 41.0625 120.922 42.0469C120.922 42.9948 121.164 43.7422 121.648 44.2891C122.133 44.8359 122.781 45.1094 123.594 45.1094C124.422 45.1094 125.057 44.8411 125.5 44.3047C125.948 43.7682 126.172 43.0052 126.172 42.0156C126.172 41.0156 125.948 40.2448 125.5 39.7031C125.057 39.1615 124.422 38.8906 123.594 38.8906ZM133.703 39.2969C133.479 39.125 133.156 39.0391 132.734 39.0391C132.188 39.0391 131.729 39.2969 131.359 39.8125C130.995 40.3281 130.812 41.0312 130.812 41.9219V46H129.531V38H130.812V39.6484H130.844C131.026 39.0859 131.305 38.6484 131.68 38.3359C132.055 38.0182 132.474 37.8594 132.938 37.8594C133.271 37.8594 133.526 37.8958 133.703 37.9688V39.2969Z" fill="white"/>
<path d="M76.125 9.19531L71.3789 26H69.0703L65.6133 13.7188C65.4648 13.1953 65.375 12.625 65.3438 12.0078H65.2969C65.25 12.5859 65.1484 13.1484 64.9922 13.6953L61.5117 26H59.2266L54.3047 9.19531H56.4727L60.0469 22.0859C60.1953 22.625 60.2891 23.1875 60.3281 23.7734H60.3867C60.4258 23.3594 60.5469 22.7969 60.75 22.0859L64.4648 9.19531H66.3516L69.9141 22.1797C70.0391 22.625 70.1328 23.1484 70.1953 23.75H70.2422C70.2734 23.3438 70.3789 22.8047 70.5586 22.1328L73.9922 9.19531H76.125ZM82.4531 26.2812C80.6797 26.2812 79.2617 25.7227 78.1992 24.6055C77.1445 23.4805 76.6172 21.9922 76.6172 20.1406C76.6172 18.125 77.168 16.5508 78.2695 15.418C79.3711 14.2852 80.8594 13.7188 82.7344 13.7188C84.5234 13.7188 85.918 14.2695 86.918 15.3711C87.9258 16.4727 88.4297 18 88.4297 19.9531C88.4297 21.8672 87.8867 23.4023 86.8008 24.5586C85.7227 25.707 84.2734 26.2812 82.4531 26.2812ZM82.5938 15.3359C81.3594 15.3359 80.3828 15.7578 79.6641 16.6016C78.9453 17.4375 78.5859 18.5938 78.5859 20.0703C78.5859 21.4922 78.9492 22.6133 79.6758 23.4336C80.4023 24.2539 81.375 24.6641 82.5938 24.6641C83.8359 24.6641 84.7891 24.2617 85.4531 23.457C86.125 22.6523 86.4609 21.5078 86.4609 20.0234C86.4609 18.5234 86.125 17.3672 85.4531 16.5547C84.7891 15.7422 83.8359 15.3359 82.5938 15.3359Z" fill="white"/>
<defs>
<linearGradient id="paint0_linear_432_118" x1="0" y1="27.91" x2="143" y2="27.91" gradientUnits="userSpaceOnUse">
<stop offset="0.005"/>
<stop offset="0.029" stop-color="#0C0C0C"/>
<stop offset="0.073" stop-color="#2D2D2D"/>
<stop offset="0.131" stop-color="#616262"/>
<stop offset="0.201" stop-color="#A9AAAA"/>
<stop offset="0.256" stop-color="#E6E7E8"/>
<stop offset="0.277" stop-color="#BBC6DC"/>
<stop offset="0.302" stop-color="#91A9D1"/>
<stop offset="0.327" stop-color="#6F93C8"/>
<stop offset="0.351" stop-color="#5385C2"/>
<stop offset="0.374" stop-color="#3A7CBE"/>
<stop offset="0.396" stop-color="#2577BC"/>
<stop offset="0.414" stop-color="#1C75BC"/>
<stop offset="0.437" stop-color="#197BA6"/>
<stop offset="0.466" stop-color="#12828E"/>
<stop offset="0.495" stop-color="#09887A"/>
<stop offset="0.525" stop-color="#018C67"/>
<stop offset="0.553" stop-color="#009056"/>
<stop offset="0.582" stop-color="#00924B"/>
<stop offset="0.609" stop-color="#009346"/>
<stop offset="0.636" stop-color="#009444"/>
<stop offset="0.648" stop-color="#4D8E40"/>
<stop offset="0.67" stop-color="#827F38"/>
<stop offset="0.694" stop-color="#A47031"/>
<stop offset="0.717" stop-color="#BE5E2C"/>
<stop offset="0.74" stop-color="#D14A28"/>
<stop offset="0.763" stop-color="#DF3626"/>
<stop offset="0.785" stop-color="#E92425"/>
<stop offset="0.808" stop-color="#ED1C24"/>
<stop offset="1" stop-color="#F9ED32"/>
</linearGradient>
</defs>
</svg>
