<svg width="105" height="38" viewBox="0 0 105 38" fill="none" xmlns="http://www.w3.org/2000/svg">
<path d="M97.3044 18.0713H37.9547C37.7707 14.3601 36.502 10.7844 34.3056 7.78725C32.1092 4.79009 29.0818 2.50317 25.5984 1.20984C22.115 -0.083494 18.3286 -0.3264 14.7085 0.511211C11.0883 1.34882 7.79351 3.23014 5.23217 5.92209C2.67084 8.61403 0.955579 11.9983 0.298901 15.6556C-0.357778 19.3129 0.0729792 23.0824 1.53782 26.4973C3.00265 29.9122 5.43719 32.8222 8.53979 34.8669C11.6424 36.9116 15.2767 38.0011 18.9925 38.0004C19.6473 38.0004 20.3022 37.9685 20.957 37.9047H97.3044C99.2715 37.8999 101.157 37.1164 102.548 35.7254C103.938 34.3345 104.722 32.4494 104.727 30.4824V25.5233C104.728 23.5517 103.947 21.66 102.556 20.263C101.165 18.8661 99.2761 18.0779 97.3044 18.0713Z" fill="#BCBCBC"/>
</svg>
